PathFileType	4	(X/Y/Z)	C:\Users\WrightLab\Desktop\Jo\P5V17.trc
DataRate	CameraRate	NumFrames	NumMarkers	Units	OrigDataRate	OrigDataStartFrame	OrigNumFrames
100.00	100.00	       55	19	mm	100.00	554	       633
Frame#	Time	Headset_Front			Headset_Back			Headset_Left			Headset_Right			Left_Shoulder			Right_Shoulder			Sternum			C7			Left Elbow			Right Elbow			Left Wrist			Right Wrist			Left ASIS			Right ASIS			S2			Left Knee			Right Knee			Left Ankle			Right Ankle			
		X1	Y1	Z1	X2	Y2	Z2	X3	Y3	Z3	X4	Y4	Z4	X5	Y5	Z5	X6	Y6	Z6	X7	Y7	Z7	X8	Y8	Z8	X9	Y9	Z9	X10	Y10	Z10	X11	Y11	Z11	X12	Y12	Z12	X13	Y13	Z13	X14	Y14	Z14	X15	Y15	Z15	X16	Y16	Z16	X17	Y17	Z17	X18	Y18	Z18	X19	Y19	Z19	

554	5.530																-63.09249	1569.00623	2094.29956																			-304.80865	987.56256	2015.94360							-313.30997	545.02039	2100.81274	-30.32935	543.17847	1847.28894	-300.49625	144.77925	2210.52881				
555	5.540																-69.28456	1570.53601	2099.36133																			-308.80048	989.18695	2013.72620							-314.40326	546.27356	2101.62256	-31.92723	543.76868	1850.72583	-300.74335	144.56082	2211.23486				
556	5.550																-75.06714	1571.47046	2103.77539																			-312.46075	989.94421	2013.14233							-315.67471	547.14276	2103.75488	-34.50735	545.54254	1855.88208	-300.79108	144.41267	2211.15967				
557	5.560																-81.34588	1572.83923	2107.90479																			-316.02255	990.90326	2012.45618							-317.18323	547.66498	2105.81494	-36.58758	547.87433	1858.50464	-300.75754	143.96162	2211.17676				
558	5.570																-86.50880	1573.81958	2112.04346																			-320.00421	992.01935	2011.64172							-317.51120	548.36633	2105.40015	-38.32921	547.76807	1865.54700	-300.79160	143.86304	2211.11987				
559	5.580																-92.35598	1575.16406	2116.44360																			-323.28653	992.79993	2009.98706							-318.81027	548.88208	2107.19189	-39.99666	549.06812	1869.48926	-300.79407	143.83334	2211.12671				
560	5.590																-97.30718	1575.88110	2119.50439																			-326.09451	993.85626	2008.19788							-320.44980	549.87866	2109.42505	-40.81679	550.00995	1873.45264	-300.83032	143.74515	2211.05786				
561	5.600																-102.61922	1576.87976	2123.45093																			-329.69818	994.54865	2007.03613							-321.95929	550.14056	2110.82104	-42.27985	552.20490	1878.23914	-301.00769	143.56116	2211.29712				
562	5.610																-107.86887	1577.59375	2127.25928																			-331.89661	995.54980	2004.88660							-323.73599	550.45135	2112.48853	-42.85247	552.70294	1883.82593	-301.09180	143.36420	2211.13354				
563	5.620																-113.16656	1579.19324	2131.11621																			-334.83902	996.12561	2003.99292							-325.28574	550.54053	2113.68604	-43.36009	553.94464	1889.66541	-301.39096	143.27911	2211.31299				
564	5.630																-117.85730	1578.84753	2134.40356																			-336.55664	996.81250	2001.74707							-326.44666	550.52301	2114.13013	-43.38898	555.31964	1894.64673	-301.59720	142.98399	2211.44727				
565	5.640																-122.57265	1579.89417	2137.19971																			-338.49408	997.08038	1999.99170							-327.64581	550.22577	2113.70972	-43.51178	556.20496	1899.78528	-301.86630	142.96429	2211.75781				
566	5.650																-127.00359	1579.86548	2140.17798																			-340.44574	997.42767	1998.29321							-329.06799	550.02673	2112.02173	-43.43199	558.12689	1904.78796	-301.85095	142.49957	2211.72583				
567	5.660																-131.69412	1580.63550	2143.47168																			-341.44812	997.43536	1997.12695							-330.06302	549.64355	2110.52661	-42.72739	559.05981	1908.57593	-301.90137	142.37283	2211.63208				
568	5.670																-135.38646	1580.50586	2145.38525																			-342.29266	997.41553	1995.07605							-331.23792	548.83130	2108.52051	-41.67857	561.47778	1912.19067	-301.92242	142.30107	2211.60205				
569	5.680																-140.16551	1580.85144	2149.00708																			-343.40784	997.25269	1993.90149							-332.62567	548.18658	2105.35986	-40.21894	561.62292	1916.90735	-301.94995	142.21585	2211.55884				
570	5.690																-144.05734	1581.30725	2150.93018																			-344.18124	997.13269	1993.80310							-333.79047	547.68518	2103.62207	-37.93837	561.58417	1920.87390	-301.96231	142.15848	2211.54858				
571	5.700																-148.07161	1581.24817	2153.88330																			-344.99490	997.00177	1992.98572							-334.55804	545.98486	2101.65430	-36.40837	563.05371	1923.66345	-302.00357	142.04752	2211.47559				
572	5.710																-151.51950	1581.32349	2155.21460																			-345.74554	997.10144	1991.71716							-335.97708	546.27197	2099.57813	-34.66312	562.94849	1929.13660	-302.03522	141.92307	2211.43872				
573	5.720																-154.82849	1581.46924	2157.26782																			-346.14001	997.15594	1990.17517							-337.72305	546.39191	2097.24097	-32.54920	562.91388	1934.38123	-302.08347	141.79597	2211.35181				
574	5.730																-158.46266	1581.28210	2159.96216																			-346.51111	997.29205	1989.69446							-339.43060	546.26709	2095.47583	-29.18143	564.06232	1934.75769	-302.11157	141.54477	2211.60962				
575	5.740																-161.52299	1581.51428	2161.72803																			-346.63922	997.42737	1989.04224							-340.54230	545.77850	2094.78906	-27.83642	564.97186	1941.27588	-302.14487	141.48219	2211.53735				
576	5.750																-164.57356	1581.99158	2163.49072																			-346.75693	997.56799	1987.79004							-342.04965	546.23383	2093.87231	-26.46731	565.40955	1945.96069	-302.15833	141.48622	2211.49390				
577	5.760																-167.45709	1581.67761	2165.02783																			-346.85767	997.61359	1986.14746							-343.12265	545.87830	2092.38232	-24.79100	565.27490	1950.42542	-302.18201	141.62276	2211.13232				
578	5.770																-169.54842	1581.60840	2166.77466																												-343.85162	545.97064	2092.00757	-23.24816	565.67871	1956.48022	-302.17770	141.63368	2211.14014				
579	5.780																-172.03342	1581.88159	2168.18848																												-344.22546	545.51569	2090.81934	-21.85812	565.96179	1961.91907	-302.19781	141.62117	2211.08423				
580	5.790																-174.26468	1582.03882	2169.55908																												-344.95514	545.48218	2089.21777	-20.30562	565.75226	1967.36426	-302.25137	141.51279	2210.97168				
581	5.800																-175.84775	1581.74194	2170.71118																												-344.61423	543.51874	2087.29468	-18.67575	565.13556	1973.86499	-302.32315	141.34560	2210.83203				
582	5.810																-177.13255	1581.55115	2171.47217																												-345.33310	543.84778	2085.90332	-17.45375	564.91455	1978.88000	-302.43094	141.13040	2210.60425				
583	5.820																-178.79276	1581.64038	2173.19360																												-345.59061	543.58496	2085.90967	-15.53567	564.78308	1984.15710	-302.56641	140.65523	2210.63989				
584	5.830																-179.67542	1581.33972	2173.62915																												-346.04453	543.23901	2084.91895	-14.54976	564.85120	1988.71484	-302.60242	140.75552	2210.25806				
585	5.840																-180.29071	1581.34351	2173.70288																												-346.58725	543.05054	2085.10400	-12.58881	564.88599	1994.79431	-302.70313	140.55893	2210.04321				
586	5.850																-181.32848	1580.96240	2175.13428																												-347.68088	543.46631	2082.86572	-11.06646	564.19037	2000.15674	-302.72308	140.52728	2209.99683				
587	5.860																-182.12914	1580.94446	2176.24316																												-348.49158	543.33142	2083.24634	-9.54344	563.80389	2004.73950	-302.68796	140.63585	2210.05225				
588	5.870																-182.32434	1580.91772	2176.62695																												-349.27472	543.35443	2083.85278	-8.10942	563.16663	2009.44189	-302.66412	140.72685	2210.08130				
589	5.880																-182.08977	1580.44421	2176.50269																												-350.56705	543.94299	2083.17725	-6.64573	562.05334	2015.02881	-302.58435	140.93434	2210.22607				
590	5.890																-182.38210	1580.43530	2177.56421																												-351.55179	543.58618	2082.69800	-5.63518	560.32990	2018.43433	-302.51508	141.10480	2210.35669				
591	5.900																-182.03372	1580.07068	2177.66431																												-352.88699	543.98883	2082.91406	-4.62793	559.44879	2023.11938	-302.23236	141.14223	2210.04419				
592	5.910																-181.87840	1580.13257	2178.06470																												-354.26471	543.92389	2081.75781	-3.48304	558.19458	2027.25452	-302.15881	141.30949	2210.18970				
593	5.920																-181.72316	1580.20068	2178.46289																												-355.24847	543.68726	2082.52930	-3.18046	556.80475	2030.52429	-302.07657	141.47087	2210.36475				
594	5.930																-181.69272	1580.20117	2179.06299																												-356.79236	544.31299	2082.07104	-2.76162	555.05292	2033.34033	-301.99435	141.63110	2210.54053				
595	5.940																-181.22618	1580.25195	2178.89868																												-358.66537	546.15973	2082.40405	-2.31611	553.97375	2035.17676	-301.67749	141.35196	2210.06689				
596	5.950																-180.46240	1579.70288	2178.25342																												-360.25467	546.84332	2081.80933	-2.09016	552.72778	2039.55469	-301.63998	141.40691	2210.15576				
597	5.960																-180.08540	1579.43896	2178.64795																												-361.29028	546.79303	2082.61084	-1.69550	551.54376	2041.74292	-301.66364	141.47809	2210.67334				
598	5.970																-179.52930	1579.39172	2178.64844																												-362.90231	547.27423	2080.75732	-1.53822	550.71295	2044.01587	-301.63174	141.51196	2210.75537				
599	5.980																-178.92438	1579.05457	2178.34351																												-363.98380	547.30896	2081.28052	-1.47269	550.36371	2046.22974	-301.59070	141.58131	2210.84814				
600	5.990																-178.68681	1579.29114	2178.90771																												-364.81326	547.10925	2080.50830	-1.17638	550.20062	2047.83276	-301.55643	141.62241	2210.93408				
601	6.000																-178.34143	1579.65918	2179.42065																												-366.13748	547.69312	2079.87378	-1.25986	549.74744	2049.07593	-301.53625	141.64717	2210.98438				
602	6.010																-178.04774	1580.07959	2179.98730																												-367.38297	548.18213	2077.55298	-3.92185	549.29144	2053.30981	-301.50269	141.69551	2211.06445				
603	6.020																-177.04663	1580.03308	2179.14307																												-368.07816	548.17749	2077.70435	-4.07567	548.72632	2056.15259	-301.47046	141.73701	2211.14380				
604	6.030																-176.55836	1579.89417	2179.32153																												-368.45538	548.21973	2077.72705	-4.64694	549.67456	2056.26587	-301.43668	141.80452	2211.21509				
605	6.040																-175.75392	1579.93909	2178.79883																												-368.81317	548.22394	2077.83936	-5.04788	550.02014	2058.07690	-301.41495	141.83981	2211.26489				
606	6.050																-175.27464	1579.87927	2179.16406																												-369.37717	548.94745	2077.81177	-5.37372	549.86176	2058.56812	-301.40976	141.86079	2211.27075				
607	6.060																-174.66924	1579.91296	2178.98755																												-369.66855	548.94879	2077.80762	-5.62296	549.81274	2058.93970	-301.39578	141.90398	2211.29272				
608	6.070																-173.92554	1580.10242	2178.91968																												-369.77264	548.97668	2077.77734	-5.80051	549.85760	2059.19971	-301.36758	142.00066	2211.33252				
